<?xml version="1.0" standalone="no"?>
<!DOCTYPE svg PUBLIC "-//W3C//DTD SVG 20010904//EN"
 "http://www.w3.org/TR/2001/REC-SVG-20010904/DTD/svg10.dtd">
<svg version="1.0" xmlns="http://www.w3.org/2000/svg"
 width="300.000000pt" height="300.000000pt" viewBox="0 0 300.000000 300.000000"
 preserveAspectRatio="xMidYMid meet">
<metadata>
Created by potrace 1.14, written by Peter Selinger 2001-2017
</metadata>
<g transform="translate(0.000000,300.000000) scale(0.100000,-0.100000)"
fill="#000000" stroke="none">
<path d="M382 1498 l3 -833 245 0 245 0 5 444 5 444 225 -447 225 -446 165 3
165 2 232 460 232 460 0 -462 1 -463 245 0 245 0 0 835 0 835 -322 0 -323 0
-235 -515 c-129 -283 -238 -515 -241 -515 -3 0 -110 232 -239 515 l-234 515
-323 0 -323 0 2 -832z"/>
</g>
</svg>
